<?xml version="1.0" encoding="iso-8859-1"?>
<!-- Generator: Adobe Illustrator 19.0.0, SVG Export Plug-In . SVG Version: 6.00 Build 0)  -->
<svg version="1.1" id="Layer_1" xmlns="http://www.w3.org/2000/svg" xmlns:xlink="http://www.w3.org/1999/xlink" x="0px" y="0px"
	 viewBox="0 0 502 502" style="enable-background:new 0 0 502 502;" xml:space="preserve">
<g>
	<g>
		<g>
			<path style="fill:#50A5DC;" d="M251,492c-64.374,0-124.894-25.068-170.413-70.587S10,315.374,10,251
				S35.068,126.106,80.587,80.587S186.626,10,251,10s124.894,25.068,170.413,70.587S492,186.626,492,251v7.701
				c0,42.214-34.344,76.558-76.558,76.558s-76.558-34.344-76.558-76.558V251c0-48.459-39.424-87.883-87.883-87.883
				S163.117,202.541,163.117,251s39.424,87.883,87.883,87.883c11.742,0,23.131-2.271,33.85-6.75
				c11.544-4.822,24.81,0.625,29.632,12.167s-0.625,24.809-12.167,29.632c-16.28,6.803-33.546,10.251-51.315,10.251
				c-73.438,0-133.184-59.746-133.184-133.184S177.562,117.816,251,117.816S384.184,177.562,384.184,251v7.701
				c0,17.236,14.022,31.258,31.258,31.258s31.258-14.022,31.258-31.258V251c0-107.909-87.791-195.699-195.699-195.699
				S55.301,143.091,55.301,251S143.091,446.699,251,446.699c54.587,0,105.246-21.918,142.644-61.717
				c8.567-9.115,22.902-9.561,32.017-0.996c9.116,8.566,9.562,22.901,0.996,32.017c-22.303,23.734-48.657,42.417-78.33,55.53
				C317.595,485.114,284.849,492,251,492z"/>
			<path d="M251,502c-67.045,0-130.077-26.108-177.484-73.516C26.108,381.077,0,318.045,0,251S26.108,120.923,73.516,73.516
				C120.923,26.108,183.955,0,251,0s130.077,26.108,177.484,73.516C475.892,120.923,502,183.955,502,251v7.701
				c0,47.729-38.83,86.558-86.558,86.558s-86.559-38.83-86.559-86.558V251c0-42.945-34.938-77.883-77.883-77.883
				S173.117,208.055,173.117,251s34.938,77.883,77.883,77.883c10.413,0,20.504-2.011,29.995-5.977
				c16.614-6.94,35.774,0.929,42.714,17.539c3.362,8.047,3.39,16.921,0.077,24.989c-3.313,8.068-9.569,14.363-17.616,17.725
				c-17.507,7.315-36.069,11.024-55.17,11.024c-78.952,0-143.184-64.232-143.184-143.184S172.048,107.816,251,107.816
				S394.184,172.048,394.184,251v7.701c0,11.721,9.536,21.257,21.258,21.257c11.721,0,21.257-9.536,21.257-21.257V251
				c0-102.395-83.304-185.699-185.699-185.699S65.301,148.605,65.301,251S148.605,436.699,251,436.699
				c51.798,0,99.869-20.799,135.356-58.565c12.329-13.12,33.033-13.764,46.152-1.436c13.12,12.329,13.764,33.033,1.436,46.153
				c-23.224,24.714-50.67,44.171-81.576,57.829C320.355,494.827,286.25,502,251,502z M251,20
				c-61.703,0-119.712,24.028-163.341,67.658C44.028,131.288,20,189.297,20,251s24.028,119.712,67.658,163.341
				C131.288,457.972,189.297,482,251,482c32.448,0,63.833-6.599,93.285-19.613c28.442-12.569,53.705-30.479,75.084-53.231
				c4.777-5.083,4.527-13.105-0.556-17.882c-5.084-4.776-13.106-4.526-17.882,0.557C361.623,433.663,308.376,456.7,251,456.7
				c-113.423,0-205.699-92.276-205.699-205.699S137.577,45.301,251,45.301S456.699,137.577,456.699,251v7.701
				c0,22.75-18.508,41.257-41.257,41.257s-41.258-18.508-41.258-41.257V251c0-67.924-55.26-123.184-123.184-123.184
				S127.816,183.076,127.816,251S183.076,374.184,251,374.184c16.44,0,32.408-3.189,47.459-9.479
				c3.118-1.303,5.542-3.741,6.825-6.867c1.284-3.126,1.273-6.564-0.03-9.682c-2.689-6.436-10.113-9.483-16.55-6.795
				c-11.945,4.992-24.631,7.522-37.705,7.522c-53.973,0-97.883-43.91-97.883-97.883s43.91-97.883,97.883-97.883
				s97.883,43.91,97.883,97.883v7.701c0,36.7,29.858,66.558,66.559,66.558c36.7,0,66.558-29.858,66.558-66.558V251
				c0-61.703-24.028-119.712-67.658-163.341C370.712,44.028,312.703,20,251,20z"/>
		</g>
	</g>
	<g>
		<path d="M221.993,307.745c-1.803,0-3.627-0.487-5.271-1.509c-7.976-4.958-14.918-11.729-20.077-19.579
			c-3.033-4.616-1.75-10.816,2.865-13.849c4.615-3.034,10.815-1.75,13.849,2.865c3.578,5.444,8.392,10.139,13.922,13.577
			c4.69,2.916,6.129,9.082,3.213,13.772C228.601,306.07,225.334,307.745,221.993,307.745z"/>
	</g>
	<g>
		<path d="M196,261c-5.523,0-10-4.477-10-10c0-35.841,29.159-65,65-65c5.523,0,10,4.477,10,10s-4.477,10-10,10
			c-24.813,0-45,20.187-45,45C206,256.523,201.523,261,196,261z"/>
	</g>
</g>
<g>
</g>
<g>
</g>
<g>
</g>
<g>
</g>
<g>
</g>
<g>
</g>
<g>
</g>
<g>
</g>
<g>
</g>
<g>
</g>
<g>
</g>
<g>
</g>
<g>
</g>
<g>
</g>
<g>
</g>
</svg>
