<?xml version="1.0" encoding="iso-8859-1"?>
<!-- Generator: Adobe Illustrator 19.0.0, SVG Export Plug-In . SVG Version: 6.00 Build 0)  -->
<svg version="1.1" id="Layer_1" xmlns="http://www.w3.org/2000/svg" xmlns:xlink="http://www.w3.org/1999/xlink" x="0px" y="0px"
	 viewBox="0 0 502.002 502.002" style="enable-background:new 0 0 502.002 502.002;" xml:space="preserve">
<g>
	<polygon style="fill:#C7EBFF;" points="364.38,492 251.001,357.541 137.623,492 137.623,10 364.38,10 	"/>
	<rect x="83.498" y="10" style="fill:#50A5DC;" width="53.556" height="143.574"/>
	<rect x="364.949" y="10" style="fill:#50A5DC;" width="53.556" height="143.574"/>
	<g>
		<path d="M83.498,0c-5.523,0-10,4.478-10,10v143.574c0,5.522,4.477,10,10,10h44.125V492c0,4.199,2.624,7.952,6.568,9.393
			c3.944,1.442,8.369,0.264,11.077-2.946l105.733-125.393l105.733,125.393c1.938,2.298,4.755,3.555,7.647,3.555
			c1.148,0,2.309-0.198,3.43-0.608c3.944-1.44,6.568-5.193,6.568-9.393V163.574h44.125c5.523,0,10-4.478,10-10V10
			c0-5.522-4.477-10-10-10H83.498z M127.054,143.574H93.498V20h33.556V143.574z M354.38,464.628l-95.733-113.533
			c-1.9-2.253-4.698-3.554-7.645-3.554s-5.745,1.301-7.645,3.554l-95.733,113.533V20h206.757v444.628H354.38z M408.505,143.574
			h-33.556V20h33.556V143.574z"/>
		<path d="M180.354,374.378c5.523,0,10-4.478,10-10v-47.857c0-5.522-4.477-10-10-10s-10,4.478-10,10v47.857
			C170.354,369.9,174.831,374.378,180.354,374.378z"/>
		<path d="M180.354,280.94c5.523,0,10-4.478,10-10V68.113c0-5.522-4.477-10-10-10s-10,4.478-10,10V270.94
			C170.354,276.463,174.831,280.94,180.354,280.94z"/>
	</g>
</g>
<g>
</g>
<g>
</g>
<g>
</g>
<g>
</g>
<g>
</g>
<g>
</g>
<g>
</g>
<g>
</g>
<g>
</g>
<g>
</g>
<g>
</g>
<g>
</g>
<g>
</g>
<g>
</g>
<g>
</g>
</svg>
