<?xml version="1.0" encoding="utf-8"?>
<!-- Generator: Adobe Illustrator 25.2.1, SVG Export Plug-In . SVG Version: 6.00 Build 0)  -->
<svg version="1.1" id="Capa_1" xmlns="http://www.w3.org/2000/svg" xmlns:xlink="http://www.w3.org/1999/xlink" x="0px" y="0px"
	 viewBox="0 0 510 510" style="enable-background:new 0 0 510 510;" xml:space="preserve">
<path d="M433.5,369.8c-30.6,0-61.2-5.1-91.8-15.3c-7.6-2.5-17.9,0-25.5,5.1l-56.1,56.1c-71.4-35.7-130.1-96.9-168.3-168.3l56.1-56.1
	c7.6-7.6,10.2-17.9,5.1-25.5c-7.6-28.1-12.8-58.7-12.8-89.2c0-15.3-10.2-25.5-25.5-25.5H25.5C10.2,51,0,61.2,0,76.5
	C0,316.2,193.8,510,433.5,510c15.3,0,25.5-10.2,25.5-25.5v-89.2C459,380,448.8,369.8,433.5,369.8z"/>
</svg>
