<?xml version="1.0" encoding="iso-8859-1"?>
<!-- Generator: Adobe Illustrator 19.0.0, SVG Export Plug-In . SVG Version: 6.00 Build 0)  -->
<svg version="1.1" id="Layer_1" xmlns="http://www.w3.org/2000/svg" xmlns:xlink="http://www.w3.org/1999/xlink" x="0px" y="0px"
	 viewBox="0 0 501.999 501.999" style="enable-background:new 0 0 501.999 501.999;" xml:space="preserve">
<g>
	<g>
		<polygon style="fill:#50A5DC;" points="329.661,134.158 251,10 172.339,134.158 251,174.275 		"/>
		<polygon style="fill:#50A5DC;" points="367.842,329.661 492,251 367.842,172.339 327.724,251 		"/>
		<polygon style="fill:#50A5DC;" points="134.158,172.339 10,251 134.158,329.661 174.276,251 		"/>
		<polygon style="fill:#50A5DC;" points="172.339,367.842 251,492 329.661,367.842 251,327.724 		"/>
	</g>
	<g>
		<g>
			<path style="fill:#C7EBFF;" d="M327.724,251l40.117-78.661l39.739-77.919l-77.92,39.739L251,174.275l-78.661-40.117
				l-77.92-39.739l39.739,77.919L174.276,251l-40.117,78.661L94.42,407.58l77.919-39.739L251,327.724l78.661,40.117l77.919,39.739
				l-39.739-77.919L327.724,251z M251,278.665c-15.279,0-27.664-12.386-27.664-27.665s12.386-27.665,27.664-27.665
				s27.665,12.386,27.665,27.665S266.279,278.665,251,278.665z"/>
			<circle style="fill:#50A5DC;" cx="251" cy="251" r="27.665"/>
		</g>
		<g>
			<path d="M497.352,242.553l-116.463-73.786l35.6-69.804c1.969-3.86,1.228-8.55-1.837-11.614
				c-3.063-3.063-7.753-3.805-11.614-1.837l-69.804,35.6L259.447,4.648C257.613,1.754,254.426,0,251,0s-6.613,1.754-8.447,4.648
				l-73.786,116.463l-69.804-35.6c-3.86-1.971-8.551-1.228-11.614,1.837c-3.064,3.064-3.806,7.754-1.837,11.614l35.6,69.804
				L4.648,242.553C1.754,244.387,0,247.574,0,251s1.754,6.613,4.648,8.447l116.463,73.786l-35.6,69.804
				c-1.969,3.86-1.228,8.55,1.837,11.614c3.064,3.065,7.755,3.807,11.614,1.837l69.804-35.6l73.786,116.463
				c1.834,2.895,5.021,4.648,8.447,4.648s6.613-1.754,8.447-4.648l73.786-116.463l69.804,35.6c1.44,0.735,2.996,1.092,4.54,1.092
				c2.594,0,5.153-1.008,7.074-2.929c3.064-3.064,3.806-7.754,1.837-11.614l-35.6-69.804l116.463-73.786
				c2.895-1.834,4.648-5.021,4.648-8.447S500.246,244.387,497.352,242.553z M251,28.686l64.339,101.552L251,163.05l-64.339-32.813
				L251,28.686z M28.686,251l101.552-64.339L163.05,251l-32.812,64.339L28.686,251z M251,473.314l-64.339-101.552L251,338.95
				l64.339,32.813L251,473.314z M255.543,318.816c-1.427-0.728-2.984-1.092-4.543-1.092s-3.116,0.364-4.543,1.092L117.329,384.67
				l65.854-129.128c1.456-2.854,1.456-6.232,0-9.086l-65.854-129.128l129.128,65.854c2.854,1.455,6.232,1.455,9.086,0
				l129.128-65.854l-65.854,129.128c-1.456,2.854-1.456,6.232,0,9.086l65.854,129.128L255.543,318.816z M371.763,315.339
				L338.951,251l32.813-64.339L473.314,251L371.763,315.339z"/>
			<path d="M251,213.336c-20.768,0-37.664,16.896-37.664,37.664s16.896,37.664,37.664,37.664s37.664-16.896,37.664-37.664
				S271.768,213.336,251,213.336z M251,268.664c-9.74,0-17.664-7.924-17.664-17.664s7.924-17.664,17.664-17.664
				c9.74,0,17.664,7.924,17.664,17.664C268.664,260.74,260.74,268.664,251,268.664z"/>
		</g>
	</g>
</g>
<g>
</g>
<g>
</g>
<g>
</g>
<g>
</g>
<g>
</g>
<g>
</g>
<g>
</g>
<g>
</g>
<g>
</g>
<g>
</g>
<g>
</g>
<g>
</g>
<g>
</g>
<g>
</g>
<g>
</g>
</svg>
