<?xml version="1.0" encoding="iso-8859-1"?>
<!-- Generator: Adobe Illustrator 19.0.0, SVG Export Plug-In . SVG Version: 6.00 Build 0)  -->
<svg version="1.1" id="Layer_1" xmlns="http://www.w3.org/2000/svg" xmlns:xlink="http://www.w3.org/1999/xlink" x="0px" y="0px"
	 viewBox="0 0 502 502" style="enable-background:new 0 0 502 502;" xml:space="preserve">
<g>
	<circle style="fill:#50A5DC;" cx="84.5" cy="417.001" r="74.5"/>
	<circle style="fill:#50A5DC;" cx="417.5" cy="417.001" r="74.5"/>
	<circle style="fill:#50A5DC;" cx="251" cy="85.001" r="74.5"/>
	<g>
		<path d="M417.5,332.501c-19.7,0-37.832,6.795-52.218,18.14l-25.711-25.711c-3.906-3.905-10.236-3.905-14.143,0
			c-3.905,3.905-3.905,10.237,0,14.143l25.711,25.711C339.795,379.169,333,397.301,333,417.001c0,46.593,37.906,84.5,84.5,84.5
			s84.5-37.907,84.5-84.5S464.094,332.501,417.5,332.501z M417.5,481.501c-35.565,0-64.5-28.935-64.5-64.5s28.935-64.5,64.5-64.5
			s64.5,28.935,64.5,64.5S453.065,481.501,417.5,481.501z"/>
		<path d="M213.929,272.43l-77.771,77.771c-14.295-11.081-32.213-17.7-51.658-17.7c-46.593,0-84.5,37.907-84.5,84.5
			s37.907,84.5,84.5,84.5s84.5-37.907,84.5-84.5c0-19.955-6.969-38.305-18.58-52.778l77.651-77.651
			c3.905-3.905,3.905-10.237,0-14.143C224.166,268.524,217.834,268.524,213.929,272.43z M149,417.001
			c0,35.565-28.935,64.5-64.5,64.5S20,452.566,20,417.001s28.935-64.5,64.5-64.5c13.925,0,26.822,4.45,37.375,11.982l-44.946,44.946
			c-3.905,3.905-3.905,10.237,0,14.143c1.953,1.953,4.512,2.929,7.071,2.929s5.119-0.976,7.071-2.929l45.115-45.115
			C144.231,389.218,149,402.563,149,417.001z"/>
		<path d="M260.5,245.857v-76.906c42.136-4.738,75-40.571,75-83.952c0-46.593-37.906-84.5-84.5-84.5
			c-46.593,0-84.5,37.907-84.5,84.5c0,43.036,32.347,78.635,74,83.824v80.677c0,1.805,0.485,3.493,1.321,4.955
			c0.487,1.131,1.184,2.193,2.107,3.116l55,55c1.953,1.953,4.512,2.929,7.071,2.929s5.118-0.976,7.071-2.929
			c3.905-3.905,3.905-10.237,0-14.143L260.5,245.857z M186.5,85.001c0-35.565,28.935-64.5,64.5-64.5s64.5,28.935,64.5,64.5
			s-28.935,64.5-64.5,64.5S186.5,120.566,186.5,85.001z"/>
		<path d="M222.02,46.109c-12.223,9.12-19.52,23.659-19.52,38.892c0,5.523,4.477,10,10,10s10-4.477,10-10
			c0-9.086,4.184-17.419,11.479-22.863c4.427-3.303,5.337-9.568,2.035-13.995S226.445,42.806,222.02,46.109z"/>
		<path d="M256.193,56.971c4.005,0.736,7.735,2.295,11.088,4.634c1.743,1.216,3.737,1.8,5.713,1.8c3.158,0,6.266-1.493,8.21-4.279
			c3.16-4.529,2.05-10.763-2.479-13.923c-5.715-3.987-12.08-6.646-18.918-7.902c-5.429-1-10.645,2.596-11.642,8.028
			C247.167,50.761,250.761,55.973,256.193,56.971z"/>
	</g>
</g>
<g>
</g>
<g>
</g>
<g>
</g>
<g>
</g>
<g>
</g>
<g>
</g>
<g>
</g>
<g>
</g>
<g>
</g>
<g>
</g>
<g>
</g>
<g>
</g>
<g>
</g>
<g>
</g>
<g>
</g>
</svg>
