<?xml version="1.0" encoding="iso-8859-1"?>
<!-- Generator: Adobe Illustrator 19.0.0, SVG Export Plug-In . SVG Version: 6.00 Build 0)  -->
<svg version="1.1" id="Layer_1" xmlns="http://www.w3.org/2000/svg" xmlns:xlink="http://www.w3.org/1999/xlink" x="0px" y="0px"
	 viewBox="0 0 502 502" style="enable-background:new 0 0 502 502;" xml:space="preserve">
<g>
	<g>
		<g>
			<g>
				<path style="fill:#50A5DC;" d="M456.119,341.3c-19.816,0-35.881-16.065-35.881-35.881V81.762H196.581
					c-19.816,0-35.881-16.065-35.881-35.881S176.764,10,196.581,10h259.538C475.935,10,492,26.065,492,45.881v259.538
					C492,325.236,475.935,341.3,456.119,341.3z"/>
				<path d="M456.119,351.3c-25.299,0-45.881-20.582-45.881-45.881V91.762H196.581c-25.299,0-45.881-20.582-45.881-45.881
					S171.282,0,196.581,0H456.12C481.418,0,502,20.582,502,45.881v259.538C502,330.718,481.418,351.3,456.119,351.3z M196.581,20
					C182.31,20,170.7,31.61,170.7,45.881s11.61,25.881,25.881,25.881h223.658c5.522,0,10,4.478,10,10v223.657
					c0,14.271,11.61,25.881,25.881,25.881S482,319.689,482,305.419V45.881C482,31.61,470.39,20,456.119,20H196.581z"/>
			</g>
		</g>
		<g>
			<g>
				<path style="fill:#50A5DC;" d="M45.881,160.7c19.816,0,35.881,16.065,35.881,35.881v223.658H305.42
					c19.816,0,35.881,16.065,35.881,35.881S325.236,492,305.419,492H45.881C26.065,492,10,475.935,10,456.119V196.581
					C10,176.764,26.065,160.7,45.881,160.7z"/>
				<path d="M305.419,502H45.881C20.582,502,0,481.418,0,456.119V196.581C0,171.282,20.582,150.7,45.881,150.7
					s45.881,20.582,45.881,45.881v213.657h213.657c25.299,0,45.881,20.582,45.881,45.881S330.718,502,305.419,502z M45.881,170.7
					C31.61,170.7,20,182.311,20,196.581v259.538C20,470.39,31.61,482,45.881,482h259.538c14.271,0,25.881-11.61,25.881-25.881
					s-11.61-25.881-25.881-25.881H81.762c-5.523,0-10-4.478-10-10V196.581C71.762,182.311,60.152,170.7,45.881,170.7z"/>
			</g>
		</g>
	</g>
	<g>
		<path d="M339,49H199c-5.523,0-10-4.478-10-10s4.477-10,10-10h140c5.522,0,10,4.478,10,10S344.522,49,339,49z"/>
	</g>
	<g>
		<path d="M420,49h-40c-5.522,0-10-4.478-10-10s4.478-10,10-10h40c5.522,0,10,4.478,10,10S425.522,49,420,49z"/>
	</g>
</g>
<g>
</g>
<g>
</g>
<g>
</g>
<g>
</g>
<g>
</g>
<g>
</g>
<g>
</g>
<g>
</g>
<g>
</g>
<g>
</g>
<g>
</g>
<g>
</g>
<g>
</g>
<g>
</g>
<g>
</g>
</svg>
