<?xml version="1.0" encoding="iso-8859-1"?>
<!-- Generator: Adobe Illustrator 19.0.0, SVG Export Plug-In . SVG Version: 6.00 Build 0)  -->
<svg version="1.1" id="Layer_1" xmlns="http://www.w3.org/2000/svg" xmlns:xlink="http://www.w3.org/1999/xlink" x="0px" y="0px"
	 viewBox="0 0 502.001 502.001" style="enable-background:new 0 0 502.001 502.001;" xml:space="preserve">
<g>
	<g>
		<g>
			<path style="fill:#50A5DC;" d="M447.982,438.059H54.018C29.708,438.059,10,418.35,10,394.04V282.893
				c0-24.311,19.708-44.018,44.018-44.018s44.018,19.708,44.018,44.018v67.128h305.927v-67.128
				c0-24.311,19.707-44.018,44.018-44.018s44.018,19.708,44.018,44.018V394.04C492,418.35,472.293,438.059,447.982,438.059z"/>
			<path d="M447.982,448.059H54.018C24.232,448.059,0,423.826,0,394.04V282.895c0-29.786,24.232-54.019,54.018-54.019
				s54.019,24.232,54.019,54.019v57.128h285.927v-57.128c0-29.786,24.232-54.019,54.019-54.019
				c29.786,0,54.018,24.232,54.018,54.019V394.04C502,423.826,477.768,448.059,447.982,448.059z M54.018,248.875
				C35.26,248.875,20,264.136,20,282.895V394.04c0,18.758,15.26,34.018,34.018,34.018h393.964c18.758,0,34.018-15.26,34.018-34.018
				V282.895c0-18.758-15.26-34.019-34.018-34.019s-34.019,15.261-34.019,34.019v67.128c0,5.522-4.477,10-10,10H98.037
				c-5.523,0-10-4.478-10-10v-67.128C88.037,264.136,72.776,248.875,54.018,248.875z"/>
		</g>
	</g>
	<g>
		<path d="M251,236.943c-5.523,0-10-4.478-10-10v-163c0-5.522,4.477-10,10-10c5.523,0,10,4.478,10,10v163
			C261,232.465,256.523,236.943,251,236.943z"/>
	</g>
	<g>
		<path d="M251,296.967c-2.559,0-5.119-0.977-7.071-2.929l-82.024-82.024c-3.905-3.905-3.905-10.237,0-14.143
			c3.905-3.904,10.237-3.904,14.143,0L251,272.824l74.953-74.953c3.905-3.904,10.237-3.904,14.143,0
			c3.905,3.905,3.905,10.237,0,14.143l-82.024,82.024C256.119,295.99,253.559,296.967,251,296.967z"/>
	</g>
	<g>
		<path d="M300,393.967H98c-5.523,0-10-4.478-10-10s4.477-10,10-10h202c5.523,0,10,4.478,10,10S305.523,393.967,300,393.967z"/>
	</g>
	<g>
		<path d="M404,393.967h-63c-5.523,0-10-4.478-10-10s4.477-10,10-10h63c5.523,0,10,4.478,10,10S409.523,393.967,404,393.967z"/>
	</g>
</g>
<g>
</g>
<g>
</g>
<g>
</g>
<g>
</g>
<g>
</g>
<g>
</g>
<g>
</g>
<g>
</g>
<g>
</g>
<g>
</g>
<g>
</g>
<g>
</g>
<g>
</g>
<g>
</g>
<g>
</g>
</svg>
