<?xml version="1.0" encoding="iso-8859-1"?>
<!-- Generator: Adobe Illustrator 19.0.0, SVG Export Plug-In . SVG Version: 6.00 Build 0)  -->
<svg version="1.1" id="Layer_1" xmlns="http://www.w3.org/2000/svg" xmlns:xlink="http://www.w3.org/1999/xlink" x="0px" y="0px"
	 viewBox="0 0 501.99 501.99" style="enable-background:new 0 0 501.99 501.99;" xml:space="preserve">
<g>
	<g>
		<path style="fill:#50A5DC;" d="M283.13,40.025l41.659,84.409c8.383,16.986,24.588,28.76,43.333,31.484l93.151,13.536
			c29.393,4.271,41.13,40.392,19.861,61.124l-67.405,65.704c-13.564,13.222-19.754,32.272-16.552,50.942l15.912,92.775
			c5.021,29.274-25.706,51.598-51.996,37.777l-83.317-43.802c-16.766-8.815-36.797-8.815-53.563,0l-83.317,43.802
			c-26.29,13.821-57.016-8.503-51.996-37.777l15.912-92.775c3.202-18.67-2.988-37.72-16.552-50.942l-67.405-65.704
			c-21.269-20.732-9.533-56.853,19.861-61.124l93.151-13.536c18.745-2.724,34.95-14.497,43.333-31.484l41.659-84.409
			C232.005,13.39,269.985,13.39,283.13,40.025z"/>
		<path d="M377.812,491.941c-7.284,0-14.606-1.757-21.372-5.314l-83.317-43.802c-13.856-7.285-30.4-7.285-44.257,0l-83.317,43.803
			c-15.557,8.177-34.053,6.841-48.271-3.489c-14.218-10.33-21.205-27.508-18.234-44.83l15.912-92.775
			c2.646-15.429-2.466-31.164-13.676-42.091L13.875,237.74C1.291,225.471-3.154,207.468,2.278,190.753
			c5.431-16.714,19.609-28.668,37.001-31.195l93.151-13.536c15.491-2.251,28.876-11.976,35.804-26.013l41.659-84.41
			c7.778-15.76,23.527-25.55,41.102-25.55s33.324,9.79,41.102,25.55l41.659,84.41c6.928,14.038,20.313,23.762,35.804,26.013
			l93.151,13.536c17.392,2.527,31.57,14.48,37.001,31.195s0.987,34.719-11.598,46.986l-67.405,65.704
			c-11.209,10.926-16.322,26.661-13.676,42.09l15.912,92.775c2.971,17.322-4.016,34.5-18.234,44.83
			C396.677,488.975,387.276,491.941,377.812,491.941z M250.995,417.36c10.797,0,21.593,2.587,31.435,7.762l83.317,43.802
			c8.9,4.679,19.072,3.944,27.208-1.967c8.136-5.911,11.978-15.357,10.278-25.269l-15.912-92.775
			c-3.759-21.918,3.503-44.271,19.428-59.793l67.405-65.704c7.201-7.02,9.645-16.92,6.537-26.484
			c-3.107-9.564-10.904-16.137-20.856-17.583l-93.151-13.536c-22.007-3.197-41.021-17.012-50.863-36.954l-41.659-84.41
			c-4.451-9.018-13.111-14.401-23.167-14.401c-10.056,0-18.717,5.383-23.167,14.401l-41.659,84.41
			c-9.842,19.942-28.856,33.756-50.863,36.954L42.155,179.35c-9.952,1.446-17.749,8.019-20.856,17.583
			c-3.107,9.564-0.664,19.464,6.537,26.484l67.405,65.703c15.924,15.523,23.187,37.875,19.428,59.793l-15.912,92.775
			c-1.7,9.912,2.142,19.357,10.278,25.269c8.136,5.91,18.307,6.646,27.208,1.966l83.317-43.802
			C229.402,419.948,240.198,417.36,250.995,417.36z"/>
	</g>
	<g>
		<path d="M116.982,210.012c-4.886,0-9.16-3.585-9.883-8.563c-0.794-5.465,2.993-10.54,8.458-11.334l22.7-3.298
			c18.75-2.725,36.417-11.643,49.748-25.111c3.886-3.924,10.217-3.958,14.142-0.072c3.925,3.885,3.958,10.216,0.073,14.142
			c-16.369,16.538-38.063,27.488-61.086,30.833l-22.7,3.298C117.946,209.977,117.461,210.012,116.982,210.012z"/>
	</g>
	<g>
		<path d="M215.502,148.742c-1.487,0-2.995-0.333-4.418-1.035c-4.952-2.444-6.986-8.44-4.542-13.393l7.928-16.064
			c2.444-4.953,8.441-6.985,13.393-4.542c4.953,2.444,6.986,8.44,4.542,13.393l-7.928,16.064
			C222.735,146.695,219.188,148.742,215.502,148.742z"/>
	</g>
</g>
<g>
</g>
<g>
</g>
<g>
</g>
<g>
</g>
<g>
</g>
<g>
</g>
<g>
</g>
<g>
</g>
<g>
</g>
<g>
</g>
<g>
</g>
<g>
</g>
<g>
</g>
<g>
</g>
<g>
</g>
</svg>
