<?xml version="1.0" encoding="iso-8859-1"?>
<!-- Generator: Adobe Illustrator 19.0.0, SVG Export Plug-In . SVG Version: 6.00 Build 0)  -->
<svg version="1.1" id="Layer_1" xmlns="http://www.w3.org/2000/svg" xmlns:xlink="http://www.w3.org/1999/xlink" x="0px" y="0px"
	 viewBox="0 0 502 502" style="enable-background:new 0 0 502 502;" xml:space="preserve">
<g>
	<path style="fill:#50A5DC;" d="M251,431.489c-99.522,0-180.489-80.967-180.489-180.489S151.478,70.511,251,70.511
		S431.489,151.478,431.489,251S350.522,431.489,251,431.489z M251,153.974c-53.5,0-97.026,43.526-97.026,97.026
		S197.5,348.026,251,348.026S348.026,304.5,348.026,251S304.5,153.974,251,153.974z"/>
	<g>
		<path d="M492,241h-50.773C436.181,143.906,358.094,65.819,261,60.773V10c0-5.522-4.477-10-10-10s-10,4.478-10,10v50.773
			C143.906,65.819,65.819,143.906,60.773,241H10c-5.523,0-10,4.478-10,10s4.477,10,10,10h50.773
			C65.819,358.094,143.906,436.181,241,441.227V492c0,5.522,4.477,10,10,10c5.523,0,10-4.478,10-10v-50.773
			c97.094-5.046,175.181-83.133,180.227-180.227H492c5.523,0,10-4.478,10-10S497.523,241,492,241z M251,421.489
			c-94.008,0-170.489-76.481-170.489-170.489S156.992,80.511,251,80.511S421.489,156.992,421.489,251S345.008,421.489,251,421.489z"
			/>
		<path d="M251,143.974c-59.014,0-107.026,48.012-107.026,107.026S191.986,358.026,251,358.026S358.026,310.015,358.026,251
			S310.014,143.974,251,143.974z M337.448,241H261v-76.448C301.011,169.15,332.849,200.989,337.448,241z M241,164.552V241h-76.448
			C169.151,200.989,200.989,169.15,241,164.552z M164.552,261H241v76.448C200.989,332.85,169.151,301.011,164.552,261z M261,337.448
			V261h76.448C332.849,301.011,301.011,332.85,261,337.448z"/>
		<path d="M210.307,123.947c0.941,0,1.898-0.135,2.847-0.415c12.226-3.625,24.959-5.463,37.846-5.463c5.523,0,10-4.478,10-10
			s-4.477-10-10-10c-14.813,0-29.459,2.115-43.531,6.287c-5.295,1.57-8.315,7.136-6.745,12.431
			C202.013,121.134,205.994,123.947,210.307,123.947z"/>
		<path d="M175.826,141.351c4.552-3.127,5.707-9.353,2.58-13.904c-3.127-4.553-9.353-5.706-13.905-2.58
			C122.904,153.442,98.069,200.596,98.069,251c0,5.522,4.477,10,10,10s10-4.478,10-10
			C118.069,207.186,139.661,166.195,175.826,141.351z"/>
	</g>
</g>
<g>
</g>
<g>
</g>
<g>
</g>
<g>
</g>
<g>
</g>
<g>
</g>
<g>
</g>
<g>
</g>
<g>
</g>
<g>
</g>
<g>
</g>
<g>
</g>
<g>
</g>
<g>
</g>
<g>
</g>
</svg>
