<?xml version="1.0" encoding="iso-8859-1"?>
<!-- Generator: Adobe Illustrator 19.0.0, SVG Export Plug-In . SVG Version: 6.00 Build 0)  -->
<svg version="1.1" id="Layer_1" xmlns="http://www.w3.org/2000/svg" xmlns:xlink="http://www.w3.org/1999/xlink" x="0px" y="0px"
	 viewBox="0 0 502.003 502.003" style="enable-background:new 0 0 502.003 502.003;" xml:space="preserve">
<g>
	<circle style="fill:#50A5DC;" cx="96.465" cy="275.02" r="86.465"/>
	<circle style="fill:#50A5DC;" cx="337.518" cy="275.02" r="86.465"/>
	<path d="M496.494,131.587c-4.932-2.482-10.945-0.495-13.428,4.439l-54.251,107.833c-12.987-37.946-49.007-65.303-91.298-65.303
		c-32.981,0-62.145,16.641-79.549,41.964c-10.864-10.498-25.545-16.636-40.978-16.636s-30.114,6.139-40.978,16.636
		c-17.404-25.323-46.568-41.964-79.549-41.964c-9.009,0-17.731,1.245-26.009,3.566L89.527,145.1c2.529-4.91,0.6-10.94-4.311-13.469
		c-4.909-2.531-10.939-0.6-13.469,4.31L41,195.628c-0.127,0.246-0.234,0.496-0.338,0.747C16.07,213.875,0,242.606,0,275.021
		c0,53.19,43.274,96.464,96.465,96.464s96.465-43.274,96.465-96.464c0-12.636-2.446-24.71-6.883-35.779
		c7.31-9.57,18.774-15.358,30.945-15.358s23.635,5.787,30.945,15.358c-4.437,11.069-6.883,23.143-6.883,35.779
		c0,53.19,43.274,96.464,96.465,96.464c52.124,0,94.719-41.558,96.407-93.279l67.009-133.192
		C503.415,140.081,501.428,134.069,496.494,131.587z M96.465,351.485C54.302,351.485,20,317.183,20,275.021
		c0-42.163,34.302-76.465,76.465-76.465s76.465,34.302,76.465,76.465C172.93,317.183,138.628,351.485,96.465,351.485z
		 M337.518,351.485c-42.163,0-76.465-34.302-76.465-76.464c0-42.163,34.302-76.465,76.465-76.465s76.465,34.302,76.465,76.465
		C413.982,317.183,379.681,351.485,337.518,351.485z"/>
	<g>
		<g>
			<path d="M69.735,329.491c-1.753,0-3.528-0.461-5.141-1.43c-13.847-8.32-23.761-21.509-27.917-37.137
				c-1.42-5.337,1.757-10.814,7.094-12.234c5.335-1.417,10.814,1.756,12.234,7.094c2.813,10.579,9.521,19.504,18.89,25.133
				c4.734,2.845,6.266,8.988,3.421,13.722C76.441,327.761,73.13,329.491,69.735,329.491z"/>
		</g>
		<g>
			<path d="M51.986,258.302c-1.753,0-3.528-0.461-5.141-1.43c-4.734-2.845-6.266-8.988-3.421-13.722
				c8.513-14.167,22.033-24.172,38.07-28.171c16.036-3.998,32.671-1.513,46.84,7c4.734,2.845,6.266,8.988,3.421,13.722
				c-2.844,4.733-8.988,6.265-13.722,3.421c-19.795-11.894-45.572-5.465-57.467,14.328
				C58.692,256.573,55.381,258.302,51.986,258.302z"/>
		</g>
		<g>
			<path d="M310.788,329.491c-1.753,0-3.528-0.461-5.141-1.43c-13.848-8.32-23.762-21.509-27.916-37.138
				c-1.419-5.337,1.757-10.814,7.095-12.233c5.336-1.418,10.813,1.757,12.233,7.095c2.813,10.578,9.521,19.504,18.889,25.133
				c4.734,2.845,6.266,8.988,3.421,13.722C317.494,327.761,314.183,329.491,310.788,329.491z"/>
		</g>
		<g>
			<path d="M293.039,258.302c-1.753,0-3.528-0.461-5.141-1.43c-4.734-2.845-6.266-8.988-3.421-13.722
				c8.513-14.167,22.033-24.172,38.07-28.171c16.036-3.998,32.671-1.513,46.84,7c4.734,2.845,6.266,8.988,3.421,13.722
				c-2.844,4.733-8.988,6.265-13.722,3.421c-19.795-11.894-45.572-5.465-57.467,14.328
				C299.745,256.573,296.434,258.302,293.039,258.302z"/>
		</g>
	</g>
</g>
<g>
</g>
<g>
</g>
<g>
</g>
<g>
</g>
<g>
</g>
<g>
</g>
<g>
</g>
<g>
</g>
<g>
</g>
<g>
</g>
<g>
</g>
<g>
</g>
<g>
</g>
<g>
</g>
<g>
</g>
</svg>
