<?xml version="1.0" encoding="iso-8859-1"?>
<!-- Generator: Adobe Illustrator 19.0.0, SVG Export Plug-In . SVG Version: 6.00 Build 0)  -->
<svg version="1.1" id="Layer_1" xmlns="http://www.w3.org/2000/svg" xmlns:xlink="http://www.w3.org/1999/xlink" x="0px" y="0px"
	 viewBox="0 0 502 502" style="enable-background:new 0 0 502 502;" xml:space="preserve">
<g>
	<polygon style="fill:#C7EBFF;" points="54.013,206.987 250.999,10 447.986,206.987 	"/>
	<g>
		<polygon style="fill:#50A5DC;" points="86.728,206.987 86.728,492 206.293,492 206.293,346.582 295.706,346.582 295.706,492 
			415.27,492 415.27,206.987 		"/>
		<rect x="206.293" y="346.582" style="fill:#C7EBFF;" width="89.413" height="145.418"/>
	</g>
	<g>
		<path d="M455.057,199.915L258.07,2.929c-3.905-3.905-10.237-3.905-14.143,0L46.942,199.915c-2.86,2.86-3.715,7.161-2.167,10.898
			s5.194,6.173,9.239,6.173h22.715V492c0,5.523,4.477,10,10,10h119.564h89.413H415.27c5.523,0,10-4.477,10-10V216.987h22.715
			c4.044,0,7.691-2.437,9.239-6.173S457.917,202.776,455.057,199.915z M250.999,24.142l172.844,172.844H78.155L250.999,24.142z
			 M216.293,482V356.582h69.413V482H216.293z M405.27,482h-99.564V346.582c0-5.523-4.477-10-10-10h-89.413c-5.523,0-10,4.477-10,10
			V482H96.728V216.987H405.27V482z"/>
		<path d="M125.197,254.693h196.501c5.523,0,10-4.477,10-10s-4.477-10-10-10H125.197c-5.523,0-10,4.477-10,10
			S119.674,254.693,125.197,254.693z"/>
		<path d="M358.087,254.693h18.714c5.523,0,10-4.477,10-10s-4.477-10-10-10h-18.714c-5.523,0-10,4.477-10,10
			S352.564,254.693,358.087,254.693z"/>
		<path d="M235.404,396.885c-5.523,0-10,4.477-10,10v15.595c0,5.523,4.477,10,10,10s10-4.477,10-10v-15.595
			C245.404,401.362,240.927,396.885,235.404,396.885z"/>
	</g>
</g>
<g>
</g>
<g>
</g>
<g>
</g>
<g>
</g>
<g>
</g>
<g>
</g>
<g>
</g>
<g>
</g>
<g>
</g>
<g>
</g>
<g>
</g>
<g>
</g>
<g>
</g>
<g>
</g>
<g>
</g>
</svg>
