<?xml version="1.0" encoding="iso-8859-1"?>
<!-- Generator: Adobe Illustrator 19.0.0, SVG Export Plug-In . SVG Version: 6.00 Build 0)  -->
<svg version="1.1" id="Layer_1" xmlns="http://www.w3.org/2000/svg" xmlns:xlink="http://www.w3.org/1999/xlink" x="0px" y="0px"
	 viewBox="0 0 502 502" style="enable-background:new 0 0 502 502;" xml:space="preserve">
<g>
	<path style="fill:#50A5DC;" d="M363.463,492H138.537c-27.251,0-49.343-22.092-49.343-49.343V210.548h323.612v232.108
		C412.806,469.908,390.715,492,363.463,492z"/>
	<g>
		<path d="M251,417.679c-5.523,0-10-4.478-10-10v-14.813c0-5.522,4.477-10,10-10c5.522,0,10,4.478,10,10v14.813
			C261,413.201,256.523,417.679,251,417.679z"/>
	</g>
	<g>
		<path d="M251,364.123c-5.523,0-10-4.478-10-10v-61.532c0-5.522,4.477-10,10-10c5.522,0,10,4.478,10,10v61.532
			C261,359.646,256.523,364.123,251,364.123z"/>
	</g>
	<path d="M412.806,200.549h-12.789v-55.521C400.017,65.06,334.957,0,254.989,0c-35.968,0-70.527,13.393-97.311,37.711
		c-4.089,3.712-4.394,10.036-0.682,14.125c3.712,4.088,10.037,4.395,14.126,0.682C194.218,31.549,224.002,20,254.989,20
		c68.94,0,125.028,56.088,125.028,125.028v55.521H89.194c-5.523,0-10,4.478-10,10v232.108c0,32.722,26.621,59.343,59.343,59.343
		h224.926c32.722,0,59.343-26.621,59.343-59.343V210.549C422.806,205.026,418.328,200.549,412.806,200.549z M402.806,442.657
		c0,21.693-17.649,39.343-39.343,39.343H138.537c-21.694,0-39.343-17.649-39.343-39.343V220.549h303.612V442.657z"/>
	<g>
		<path d="M119.96,155.028c-5.523,0-10-4.478-10-10c0-18.356,3.427-36.277,10.186-53.264c2.042-5.131,7.856-7.636,12.988-5.595
			c5.132,2.042,7.637,7.857,5.595,12.989c-5.818,14.623-8.769,30.056-8.769,45.869C129.96,150.551,125.483,155.028,119.96,155.028z"
			/>
	</g>
</g>
<g>
</g>
<g>
</g>
<g>
</g>
<g>
</g>
<g>
</g>
<g>
</g>
<g>
</g>
<g>
</g>
<g>
</g>
<g>
</g>
<g>
</g>
<g>
</g>
<g>
</g>
<g>
</g>
<g>
</g>
</svg>
