<?xml version="1.0" encoding="iso-8859-1"?>
<!-- Generator: Adobe Illustrator 19.0.0, SVG Export Plug-In . SVG Version: 6.00 Build 0)  -->
<svg version="1.1" id="Layer_1" xmlns="http://www.w3.org/2000/svg" xmlns:xlink="http://www.w3.org/1999/xlink" x="0px" y="0px"
	 viewBox="0 0 502 502" style="enable-background:new 0 0 502 502;" xml:space="preserve">
<g>
	<polygon style="fill:#C7EBFF;" points="307,117 10,117 10,485 307,485 492,485 492,117 	"/>
	<rect x="10" y="17" style="fill:#50A5DC;" width="482" height="100"/>
	<g>
		<path d="M0,485c0,5.522,4.478,10,10,10h482c5.522,0,10-4.478,10-10V17c0-5.522-4.478-10-10-10H10C4.478,7,0,11.478,0,17V485z
			 M20,27h462v80H20V27z M482,475H315V246c0-5.522-4.478-10-10-10s-10,4.478-10,10v229H20V127h462V475z"/>
		<path d="M351,173h95c5.522,0,10-4.478,10-10s-4.478-10-10-10h-95c-5.522,0-10,4.478-10,10S345.478,173,351,173z"/>
		<path d="M70,57h-9c-5.522,0-10,4.478-10,10s4.478,10,10,10h9c5.522,0,10-4.478,10-10S75.522,57,70,57z"/>
		<path d="M115,57h-9c-5.522,0-10,4.478-10,10s4.478,10,10,10h9c5.522,0,10-4.478,10-10S120.522,57,115,57z"/>
		<path d="M159,57h-9c-5.522,0-10,4.478-10,10s4.478,10,10,10h9c5.522,0,10-4.478,10-10S164.522,57,159,57z"/>
		<path d="M351,214h95c5.522,0,10-4.478,10-10s-4.478-10-10-10h-95c-5.522,0-10,4.478-10,10S345.478,214,351,214z"/>
		<path d="M351,255h95c5.522,0,10-4.478,10-10s-4.478-10-10-10h-95c-5.522,0-10,4.478-10,10S345.478,255,351,255z"/>
		<path d="M351,296h95c5.522,0,10-4.478,10-10s-4.478-10-10-10h-95c-5.522,0-10,4.478-10,10S345.478,296,351,296z"/>
		<path d="M351,337h95c5.522,0,10-4.478,10-10s-4.478-10-10-10h-95c-5.522,0-10,4.478-10,10S345.478,337,351,337z"/>
		<path d="M305,215c5.522,0,10-4.478,10-10v-34c0-5.522-4.478-10-10-10s-10,4.478-10,10v34C295,210.522,299.478,215,305,215z"/>
	</g>
</g>
<g>
</g>
<g>
</g>
<g>
</g>
<g>
</g>
<g>
</g>
<g>
</g>
<g>
</g>
<g>
</g>
<g>
</g>
<g>
</g>
<g>
</g>
<g>
</g>
<g>
</g>
<g>
</g>
<g>
</g>
</svg>
