<?xml version="1.0" encoding="iso-8859-1"?>
<!-- Generator: Adobe Illustrator 19.0.0, SVG Export Plug-In . SVG Version: 6.00 Build 0)  -->
<svg version="1.1" id="Layer_1" xmlns="http://www.w3.org/2000/svg" xmlns:xlink="http://www.w3.org/1999/xlink" x="0px" y="0px"
	 viewBox="0 0 502 502" style="enable-background:new 0 0 502 502;" xml:space="preserve">
<g>
	<g>
		<g>
			<path style="fill:#50A5DC;" d="M134.094,281.753c0,64.298,52.607,116.905,116.905,116.905l0,0
				c64.298,0,116.905-52.607,116.905-116.905v-50.225h-233.81V281.753z"/>
			<path style="fill:#50A5DC;" d="M367.905,126.905C367.905,62.607,315.298,10,250.999,10l0,0
				c-64.298,0-116.905,52.607-116.905,116.905v51.298h233.81V126.905z"/>
			<polygon style="fill:#C7EBFF;" points="367.905,178.202 134.094,178.202 103.842,178.202 103.842,231.528 134.094,231.528 
				367.905,231.528 398.157,231.528 398.157,178.202 			"/>
		</g>
		<g>
			<path d="M398.461,274.035c-5.522,0-10,4.478-10,10c0,13.956-2.11,27.737-6.272,40.963c-1.657,5.269,1.27,10.883,6.537,12.541
				c0.999,0.314,2.01,0.464,3.005,0.464c4.25,0,8.192-2.732,9.536-7.001c4.773-15.171,7.194-30.973,7.194-46.967
				C408.461,278.513,403.983,274.035,398.461,274.035z"/>
			<path d="M347.396,482H261v-17.452c0-5.522-4.478-10-10-10c-5.522,0-10,4.478-10,10V482h-86.396c-5.522,0-10,4.478-10,10
				s4.478,10,10,10h192.791c5.522,0,10-4.478,10-10S352.918,482,347.396,482z"/>
			<path d="M250.999,408.658c69.976,0,126.905-56.93,126.905-126.905v-40.226h20.251c5.522,0,10-4.478,10-10v-53.325
				c0-5.522-4.478-10-10-10h-20.251v-41.297C377.905,56.93,320.976,0,250.999,0S124.094,56.93,124.094,126.905v41.297h-20.251
				c-4.721,0-8.668,3.276-9.717,7.675c-0.374,1.049-0.587,2.173-0.587,3.35v104.808c0,41.896,16.424,81.394,46.245,111.216
				c29.822,29.821,69.319,46.245,111.216,46.245c46.826,0,90.973-20.814,121.119-57.106c3.529-4.248,2.945-10.553-1.303-14.082
				c-4.248-3.53-10.554-2.945-14.082,1.303C330.4,403.314,291.862,421.497,251,421.497c-75.796,0-137.461-61.665-137.461-137.461
				v-42.508h10.556v40.226C124.094,351.729,181.023,408.658,250.999,408.658z M357.905,281.753
				c0,58.947-47.957,106.905-106.905,106.905S144.094,340.7,144.094,281.753v-40.226h213.811v40.226H357.905z M144.094,126.905
				C144.094,67.958,192.051,20,250.999,20s106.905,47.958,106.905,106.905v41.297h-213.81V126.905z M113.844,188.202h274.313v33.325
				H113.844V188.202z"/>
			<path d="M214.031,39.752c-35.224,15.229-57.983,49.747-57.983,87.94c0,5.522,4.478,10,10,10s10-4.478,10-10
				c0-30.21,18.024-57.522,45.921-69.583c5.069-2.191,7.401-8.078,5.21-13.147S219.102,37.563,214.031,39.752z"/>
			<path d="M297.837,43.824c-11.471-6.337-23.879-10.183-36.881-11.433c-5.513-0.526-10.383,3.5-10.911,8.997
				c-0.528,5.498,3.5,10.383,8.997,10.911c10.264,0.986,20.063,4.024,29.125,9.03c1.532,0.847,3.19,1.249,4.826,1.249
				c3.522,0,6.938-1.865,8.762-5.167C304.426,52.578,302.672,46.494,297.837,43.824z"/>
		</g>
	</g>
</g>
<g>
</g>
<g>
</g>
<g>
</g>
<g>
</g>
<g>
</g>
<g>
</g>
<g>
</g>
<g>
</g>
<g>
</g>
<g>
</g>
<g>
</g>
<g>
</g>
<g>
</g>
<g>
</g>
<g>
</g>
</svg>
