<?xml version="1.0" encoding="iso-8859-1"?>
<!-- Generator: Adobe Illustrator 19.0.0, SVG Export Plug-In . SVG Version: 6.00 Build 0)  -->
<svg version="1.1" id="Layer_1" xmlns="http://www.w3.org/2000/svg" xmlns:xlink="http://www.w3.org/1999/xlink" x="0px" y="0px"
	 viewBox="0 0 502.095 502.095" style="enable-background:new 0 0 502.095 502.095;" xml:space="preserve">
<g>
	<g>
		<g>
			<path style="fill:#C7EBFF;" d="M362.067,38.917c0-25.938-31.593-38.667-49.575-19.973l-37.101,38.57
				c-26.761,27.82-59.229,48.848-94.724,61.964l181.4,181.4L362.067,38.917L362.067,38.917z"/>
			<path style="fill:#C7EBFF;" d="M92.887,135.194H39.274v231.708h53.612c13.168,0,26.226,1.033,39.071,3.039
				c54.331,8.484,104.821,34.499,143.434,74.64l37.101,38.571c17.981,18.694,49.575,5.965,49.575-19.973v-70.947L104.739,134.904
				C100.799,135.089,96.849,135.194,92.887,135.194z"/>
			<path style="fill:#50A5DC;" d="M462.519,401.33L362.067,300.878l-181.4-181.4L85.272,24.083
				c-12.614-12.614-33.063-12.614-45.677,0c-12.613,12.613-12.613,33.064,0,45.677l65.144,65.144l257.329,257.329l54.774,54.774
				c6.307,6.307,14.572,9.46,22.839,9.46c8.266,0,16.531-3.153,22.838-9.46C475.132,434.394,475.132,413.943,462.519,401.33z"/>
		</g>
		<path d="M469.59,394.258l-97.522-97.522V38.918c0-16.164-9.314-29.959-24.308-35.999c-14.995-6.042-31.269-2.556-42.475,9.093
			l-37.101,38.57c-23.946,24.895-53.156,44.377-85.098,57.174L92.343,17.012c-7.989-7.989-18.611-12.39-29.909-12.39
			s-21.92,4.4-29.909,12.39c-7.99,7.988-12.39,18.61-12.39,29.909s4.399,21.921,12.389,29.91l48.363,48.363H39.275
			c-5.522,0-10,4.478-10,10v231.707c0,5.522,4.478,10,10,10h53.612c12.493,0,25.119,0.982,37.527,2.92
			c52.215,8.153,101.143,33.614,137.771,71.693l37.101,38.57c7.568,7.868,17.448,12.012,27.686,12.011
			c4.919,0,9.923-0.957,14.789-2.918c14.993-6.04,24.308-19.835,24.308-35.999v-46.804l37.703,37.703
			c7.989,7.989,18.611,12.389,29.909,12.389c11.299,0,21.921-4.399,29.91-12.389C486.082,437.587,486.082,410.751,469.59,394.258z
			 M282.599,64.447l37.101-38.57c5.515-5.731,13.211-7.379,20.587-4.407c7.377,2.973,11.781,9.495,11.781,17.448v237.819
			l-153.71-153.71C229.857,109.219,258.66,89.333,282.599,64.447z M352.068,463.179c0,7.953-4.404,14.476-11.781,17.448
			c-7.379,2.974-15.074,1.325-20.587-4.407l-37.101-38.57c-39.641-41.21-92.592-68.765-149.099-77.588
			c-13.427-2.097-27.091-3.16-40.613-3.16H49.275V145.195h43.612c2.618,0,5.242-0.051,7.867-0.133l251.313,251.313v66.804H352.068z
			 M455.448,439.936c-4.211,4.212-9.812,6.531-15.768,6.531s-11.556-2.319-15.767-6.531L46.666,62.689
			c-4.212-4.211-6.531-9.812-6.531-15.768s2.319-11.556,6.531-15.767c4.212-4.212,9.812-6.532,15.768-6.532
			s11.555,2.32,15.767,6.532L455.448,408.4C464.142,417.095,464.142,431.242,455.448,439.936z"/>
	</g>
</g>
<g>
</g>
<g>
</g>
<g>
</g>
<g>
</g>
<g>
</g>
<g>
</g>
<g>
</g>
<g>
</g>
<g>
</g>
<g>
</g>
<g>
</g>
<g>
</g>
<g>
</g>
<g>
</g>
<g>
</g>
</svg>
