<?xml version="1.0" encoding="iso-8859-1"?>
<!-- Generator: Adobe Illustrator 19.0.0, SVG Export Plug-In . SVG Version: 6.00 Build 0)  -->
<svg version="1.1" id="Layer_1" xmlns="http://www.w3.org/2000/svg" xmlns:xlink="http://www.w3.org/1999/xlink" x="0px" y="0px"
	 viewBox="0 0 502 502" style="enable-background:new 0 0 502 502;" xml:space="preserve">
<g>
	<path style="fill:#50A5DC;" d="M107.119,391.284V194.647c0-79.463,64.418-143.881,143.881-143.881s143.881,64.418,143.881,143.881
		v196.637H107.119z"/>
	<path style="fill:#50A5DC;" d="M444.04,487.204H57.96c-26.378,0-47.96-21.582-47.96-47.96l0,0c0-26.378,21.582-47.96,47.96-47.96
		h386.08c26.378,0,47.96,21.582,47.96,47.96l0,0C492,465.622,470.418,487.204,444.04,487.204z"/>
	<g>
		<path d="M146.687,214.618c-5.522,0-10,4.478-10,10v125.899c0,5.522,4.478,10,10,10s10-4.478,10-10V224.618
			C156.687,219.096,152.209,214.618,146.687,214.618z"/>
		<path d="M179.279,110.563c-17.961,17.478-30.949,39.417-37.562,63.446c-1.465,5.325,1.663,10.83,6.988,12.295
			c0.888,0.244,1.78,0.361,2.659,0.361c4.389,0,8.415-2.913,9.636-7.35c5.67-20.603,16.813-39.421,32.226-54.419
			c3.959-3.852,4.045-10.183,0.193-14.141C189.567,106.798,183.237,106.712,179.279,110.563z"/>
		<path d="M444.04,381.283h-39.159V194.646c0-80.267-61.779-146.366-140.284-153.272V14.796c0-5.522-4.478-10-10-10s-10,4.478-10,10
			V40.91c-81.892,3.37-147.478,71.033-147.478,153.737v186.637H57.96c-31.959-0.001-57.96,26-57.96,57.96
			c0,31.959,26.001,57.96,57.96,57.96h386.08c31.959,0,57.96-26.001,57.96-57.96C502,407.284,475.999,381.283,444.04,381.283z
			 M117.119,194.646c0-73.821,60.059-133.88,133.881-133.88s133.881,60.059,133.881,133.88v186.637H117.119V194.646z
			 M444.04,477.204H57.96c-20.932,0-37.96-17.028-37.96-37.96s17.028-37.961,37.96-37.961h49.159h287.762h49.159
			c20.932,0,37.96,17.029,37.96,37.961S464.972,477.204,444.04,477.204z"/>
	</g>
</g>
<g>
</g>
<g>
</g>
<g>
</g>
<g>
</g>
<g>
</g>
<g>
</g>
<g>
</g>
<g>
</g>
<g>
</g>
<g>
</g>
<g>
</g>
<g>
</g>
<g>
</g>
<g>
</g>
<g>
</g>
</svg>
