<?xml version="1.0" encoding="iso-8859-1"?>
<!-- Generator: Adobe Illustrator 19.0.0, SVG Export Plug-In . SVG Version: 6.00 Build 0)  -->
<svg version="1.1" id="Layer_1" xmlns="http://www.w3.org/2000/svg" xmlns:xlink="http://www.w3.org/1999/xlink" x="0px" y="0px"
	 viewBox="0 0 502 502" style="enable-background:new 0 0 502 502;" xml:space="preserve">
<g>
	<g>
		<rect x="10" y="24" style="fill:#C7EBFF;" width="482" height="353"/>
		<g>
			<rect x="10" y="377" style="fill:#50A5DC;" width="482" height="101"/>
			<path d="M492,14H10C4.477,14,0,18.477,0,24v353v101c0,5.523,4.477,10,10,10h482c5.522,0,10-4.477,10-10V377V24
				C502,18.477,497.522,14,492,14z M20,34h462v333H20V34z M482,468H20v-81h462V468z"/>
		</g>
	</g>
	<g>
		<path d="M455.188,327.259l-142-202.5c-1.872-2.669-4.928-4.259-8.188-4.259s-6.315,1.589-8.188,4.259l-84.875,121.036
			l-34.366-34.366c-3.905-3.905-10.237-3.905-14.143,0l-114.5,114.5c-3.905,3.905-3.905,10.237,0,14.143
			C50.881,342.024,53.441,343,56,343s5.119-0.976,7.071-2.929L170.5,232.642l29.779,29.779l-12.466,17.778
			c-3.171,4.521-2.076,10.758,2.446,13.929s10.758,2.075,13.929-2.446L305,147.917l133.813,190.824
			c1.946,2.775,5.046,4.26,8.196,4.26c1.982,0,3.986-0.588,5.732-1.813C457.264,338.017,458.358,331.78,455.188,327.259z"/>
		<g>
			<path d="M162.991,343.001c-1.983,0-3.986-0.588-5.732-1.813c-4.522-3.171-5.617-9.407-2.446-13.929l14.726-21
				c3.171-4.521,9.407-5.618,13.929-2.446c4.521,3.171,5.617,9.407,2.446,13.929l-14.726,21
				C169.242,341.516,166.141,343.001,162.991,343.001z"/>
		</g>
		<path d="M125,159c-27.019,0-49-21.981-49-49c0-5.523,4.477-10,10-10s10,4.477,10,10c0,15.991,13.009,29,29,29s29-13.009,29-29
			c0-6.538-2.122-12.708-6.136-17.842c-3.402-4.351-2.632-10.635,1.719-14.037c4.352-3.402,10.635-2.631,14.037,1.719
			C170.411,88.525,174,98.954,174,110C174,137.019,152.019,159,125,159z"/>
		<g>
			<path d="M101.34,89c-3.009,0-5.983-1.352-7.952-3.927c-3.354-4.388-2.517-10.664,1.871-14.018C103.863,64.477,114.147,61,125,61
				c5.523,0,10,4.477,10,10s-4.477,10-10,10c-6.424,0-12.508,2.055-17.594,5.944C105.594,88.33,103.458,89,101.34,89z"/>
		</g>
	</g>
</g>
<g>
</g>
<g>
</g>
<g>
</g>
<g>
</g>
<g>
</g>
<g>
</g>
<g>
</g>
<g>
</g>
<g>
</g>
<g>
</g>
<g>
</g>
<g>
</g>
<g>
</g>
<g>
</g>
<g>
</g>
</svg>
