<?xml version="1.0" encoding="iso-8859-1"?>
<!-- Generator: Adobe Illustrator 19.0.0, SVG Export Plug-In . SVG Version: 6.00 Build 0)  -->
<svg version="1.1" id="Layer_1" xmlns="http://www.w3.org/2000/svg" xmlns:xlink="http://www.w3.org/1999/xlink" x="0px" y="0px"
	 viewBox="0 0 502.019 502.019" style="enable-background:new 0 0 502.019 502.019;" xml:space="preserve">
<g>
	<g>
		<g>
			<path style="fill:#50A5DC;" d="M104.486,492.019c-6.795,0-13.607-1.633-19.831-4.933c-13.849-7.343-22.508-21.734-22.508-37.409
				V52.361c0-15.675,8.659-30.066,22.508-37.409c13.847-7.343,30.619-6.435,43.594,2.362L421.29,215.972
				c11.622,7.879,18.583,21.007,18.583,35.048c0,14.041-6.961,27.169-18.583,35.048L128.249,484.724
				C121.106,489.567,112.809,492.019,104.486,492.019z M146.831,132.22v237.597l175.24-118.798L146.831,132.22z"/>
			<path d="M104.486,502.019c-8.514,0-16.992-2.109-24.516-6.098c-17.162-9.1-27.823-26.819-27.823-46.244V52.361
				c0-19.425,10.661-37.145,27.823-46.244c17.161-9.099,37.811-7.982,53.891,2.92L426.9,207.694
				c14.384,9.75,22.971,25.947,22.971,43.325c0,17.377-8.587,33.574-22.971,43.325L133.86,493.001
				C125.159,498.9,115.001,502.019,104.486,502.019z M104.495,20.007c-5.186,0-10.389,1.252-15.156,3.78
				C78.735,29.41,72.147,40.359,72.147,52.361v397.315c0,12.002,6.587,22.952,17.192,28.574c4.649,2.465,9.887,3.768,15.147,3.768
				c6.498,0,12.775-1.927,18.151-5.572l293.041-198.658c8.888-6.025,14.194-16.033,14.194-26.77c0-10.738-5.306-20.745-14.194-26.77
				L122.637,25.591C117.169,21.883,110.844,20.007,104.495,20.007z M146.83,379.817c-1.604,0-3.213-0.386-4.684-1.165
				c-3.271-1.734-5.315-5.133-5.315-8.835V132.22c0-3.702,2.045-7.101,5.315-8.835c3.271-1.735,7.232-1.519,10.296,0.558
				l175.24,118.798c2.745,1.861,4.389,4.961,4.389,8.277s-1.644,6.416-4.389,8.277l-175.24,118.798
				C150.755,379.238,148.796,379.817,146.83,379.817z M156.831,151.081v199.876l147.418-99.938L156.831,151.081z"/>
		</g>
	</g>
	<g>
		<polygon style="fill:#C7EBFF;" points="146.831,132.22 146.831,369.817 322.071,251.019 		"/>
		<path d="M146.831,379.817c-1.605,0-3.214-0.386-4.684-1.165c-3.271-1.734-5.315-5.133-5.315-8.835V132.22
			c0-3.702,2.045-7.101,5.315-8.835c3.271-1.734,7.232-1.52,10.296,0.558l175.24,118.798c2.745,1.861,4.389,4.961,4.389,8.277
			s-1.644,6.416-4.389,8.277l-175.24,118.798C150.755,379.238,148.796,379.817,146.831,379.817z M156.831,151.081v199.876
			l147.418-99.938L156.831,151.081z"/>
	</g>
	<g>
		<path d="M347.768,232.439c-1.922,0-3.864-0.553-5.578-1.708l-19.051-12.835c-4.58-3.086-5.792-9.3-2.706-13.881
			c3.086-4.58,9.3-5.792,13.881-2.706l19.051,12.835c4.58,3.086,5.792,9.3,2.706,13.881
			C354.14,230.892,350.982,232.439,347.768,232.439z"/>
	</g>
	<g>
		<path d="M300.629,200.682c-1.922,0-3.864-0.553-5.578-1.708L141.065,95.236c-4.58-3.085-5.792-9.3-2.706-13.881
			c3.086-4.58,9.299-5.792,13.881-2.706l153.986,103.738c4.58,3.085,5.792,9.3,2.706,13.881
			C307.001,199.135,303.844,200.682,300.629,200.682z"/>
	</g>
</g>
<g>
</g>
<g>
</g>
<g>
</g>
<g>
</g>
<g>
</g>
<g>
</g>
<g>
</g>
<g>
</g>
<g>
</g>
<g>
</g>
<g>
</g>
<g>
</g>
<g>
</g>
<g>
</g>
<g>
</g>
</svg>
