<?xml version="1.0" encoding="iso-8859-1"?>
<!-- Generator: Adobe Illustrator 19.0.0, SVG Export Plug-In . SVG Version: 6.00 Build 0)  -->
<svg version="1.1" id="Layer_1" xmlns="http://www.w3.org/2000/svg" xmlns:xlink="http://www.w3.org/1999/xlink" x="0px" y="0px"
	 viewBox="0 0 484 484" style="enable-background:new 0 0 484 484;" xml:space="preserve">
<g>
	<g>
		<path style="fill:#C7EBFF;" d="M244.707,10c-61.97,0-120.23,24.132-164.049,67.951C36.839,121.771,12.707,180.031,12.707,242
			s24.132,120.229,67.951,164.049C124.476,449.868,182.737,474,244.707,474c66.522,0,129.939-28.623,173.989-78.53
			c14.619-16.563,13.043-41.84-3.52-56.459c-16.563-14.619-41.84-13.042-56.459,3.52C329.847,375.24,288.292,394,244.707,394
			c-83.813,0-152-68.187-152-152s68.187-152,152-152c27.375,0,53.716,7.225,76.777,20.759l56.915-58.398
			C339.525,24.856,293.181,10,244.707,10z"/>
		<path style="fill:#50A5DC;" d="M470.005,153.493l-27.023-95.928c-6.941-24.641-37.955-32.526-55.822-14.193l-8.761,8.99
			l-56.915,58.398l-3.891,3.992c-17.868,18.333-9.188,49.133,15.623,55.439l96.591,24.548
			C454.614,201.043,476.946,178.13,470.005,153.493z"/>
	</g>
	<g>
		<path d="M299.774,149.692c4.241,15.052,15.822,26.338,30.979,30.19l96.591,24.548c3.618,0.919,7.257,1.37,10.854,1.37
			c11.464,0,22.467-4.577,30.774-13.1c10.914-11.198,14.898-26.868,10.66-41.918c-0.001,0-0.001,0-0.001,0l-27.023-95.928
			c-4.24-15.052-15.819-26.338-30.975-30.192c-15.155-3.852-30.72,0.532-41.634,11.731l-2.909,2.985
			C337.782,13.591,292.2,0,244.707,0c-64.642,0-125.413,25.172-171.12,70.88C27.879,116.588,2.707,177.359,2.707,242
			s25.172,125.412,70.88,171.12C119.294,458.828,180.065,484,244.707,484c69.391,0,135.539-29.856,181.486-81.913
			c8.838-10.013,13.248-22.869,12.417-36.198c-0.831-13.33-6.803-25.538-16.816-34.376c-20.67-18.242-52.329-16.271-70.573,4.399
			C324.247,366.473,285.424,384,244.707,384c-78.299,0-142-63.701-142-142s63.701-142,142-142c21.186,0,42.005,4.713,60.903,13.681
			C298.443,124.146,296.235,137.13,299.774,149.692z M410.867,43.308c1.934,0,3.893,0.242,5.838,0.737
			c8.147,2.072,14.372,8.14,16.652,16.231l27.022,95.927c2.279,8.092,0.137,16.516-5.73,22.536
			c-5.866,6.019-14.229,8.378-22.38,6.307l-96.591-24.548c-8.147-2.071-14.374-8.138-16.654-16.23s-0.138-16.517,5.729-22.536
			l27.51-28.227l33.297-34.164c0-0.001,0.001-0.001,0.002-0.002l8.759-8.987C398.788,45.769,404.703,43.308,410.867,43.308z
			 M82.707,242c0,89.327,72.673,162,162,162c46.452,0,90.74-19.993,121.508-54.852c10.946-12.402,29.942-13.585,42.345-2.64
			c6.008,5.302,9.591,12.627,10.09,20.625c0.498,7.998-2.147,15.711-7.45,21.719C369.047,436.61,308.362,464,244.707,464
			c-59.299,0-115.048-23.092-156.978-65.022C45.799,357.047,22.707,301.298,22.707,242S45.799,126.953,87.729,85.022
			C129.659,43.092,185.408,20,244.707,20c42.257,0,82.854,11.715,118.143,33.988L341.416,75.98l-21.767,22.333
			C296.663,86.312,270.917,80,244.707,80C155.38,80,82.707,152.673,82.707,242z"/>
		<path d="M81.591,128.542c-4.671-2.946-10.847-1.547-13.793,3.125C46.804,164.959,35.707,203.458,35.707,243
			c0,30.418,6.392,59.75,18.997,87.18c1.686,3.666,5.307,5.827,9.093,5.827c1.397,0,2.817-0.294,4.17-0.916
			c5.019-2.306,7.217-8.244,4.91-13.262c-11.393-24.792-17.17-51.314-17.17-78.829c0-35.761,10.031-70.571,29.009-100.666
			C87.661,137.662,86.263,131.487,81.591,128.542z"/>
		<path d="M153.329,54.984c-18.818,9.162-36.131,21.086-51.459,35.441c-4.031,3.775-4.238,10.104-0.463,14.135
			c1.969,2.102,4.632,3.164,7.301,3.164c2.449,0,4.905-0.895,6.834-2.701c13.865-12.986,29.524-23.771,46.543-32.058
			c4.965-2.417,7.03-8.403,4.613-13.368C164.281,54.632,158.297,52.564,153.329,54.984z"/>
	</g>
</g>
<g>
</g>
<g>
</g>
<g>
</g>
<g>
</g>
<g>
</g>
<g>
</g>
<g>
</g>
<g>
</g>
<g>
</g>
<g>
</g>
<g>
</g>
<g>
</g>
<g>
</g>
<g>
</g>
<g>
</g>
</svg>
