<?xml version="1.0" encoding="iso-8859-1"?>
<!-- Generator: Adobe Illustrator 19.0.0, SVG Export Plug-In . SVG Version: 6.00 Build 0)  -->
<svg version="1.1" id="Layer_1" xmlns="http://www.w3.org/2000/svg" xmlns:xlink="http://www.w3.org/1999/xlink" x="0px" y="0px"
	 viewBox="0 0 502 502" style="enable-background:new 0 0 502 502;" xml:space="preserve">
<g>
	<g>
		<path style="fill:#C7EBFF;" d="M492,10H73.939v63.939H372.73c30.559,0,55.332,24.773,55.332,55.332v298.791H492V10z"/>
		<path style="fill:#50A5DC;" d="M372.73,73.939H73.939h-8.607C34.773,73.939,10,98.712,10,129.27v307.398
			C10,467.227,34.773,492,65.332,492H372.73c30.559,0,55.332-24.773,55.332-55.332v-8.607V129.27
			C428.061,98.712,403.288,73.939,372.73,73.939z"/>
	</g>
	<g>
		<path d="M492,0H73.939c-5.523,0-10,4.478-10,10v53.974C28.558,64.72,0,93.713,0,129.271v307.397C0,472.692,29.308,502,65.332,502
			H372.73c35.557,0,64.549-28.557,65.296-63.938H492c5.523,0,10-4.478,10-10V10C502,4.478,497.523,0,492,0z M418.061,436.668
			c0,24.996-20.335,45.332-45.332,45.332H65.332C40.335,482,20,461.664,20,436.668V129.271c0-24.996,20.335-45.332,45.332-45.332
			H372.73c24.996,0,45.332,20.336,45.332,45.332v307.397H418.061z M482,418.062h-43.939V129.271
			c0-36.024-29.308-65.332-65.332-65.332H83.939V20H482V418.062z"/>
		<path d="M60.413,122.959c-5.523,0-10,4.478-10,10v221.327c0,5.522,4.477,10,10,10s10-4.478,10-10V132.959
			C70.413,127.437,65.936,122.959,60.413,122.959z"/>
		<path d="M60.413,387.321c-5.523,0-10,4.478-10,10v35.658c0,5.522,4.477,10,10,10s10-4.478,10-10v-35.658
			C70.413,391.799,65.936,387.321,60.413,387.321z"/>
	</g>
</g>
<g>
</g>
<g>
</g>
<g>
</g>
<g>
</g>
<g>
</g>
<g>
</g>
<g>
</g>
<g>
</g>
<g>
</g>
<g>
</g>
<g>
</g>
<g>
</g>
<g>
</g>
<g>
</g>
<g>
</g>
</svg>
