<?xml version="1.0" encoding="iso-8859-1"?>
<!-- Generator: Adobe Illustrator 19.0.0, SVG Export Plug-In . SVG Version: 6.00 Build 0)  -->
<svg version="1.1" id="Layer_1" xmlns="http://www.w3.org/2000/svg" xmlns:xlink="http://www.w3.org/1999/xlink" x="0px" y="0px"
	 viewBox="0 0 502 502" style="enable-background:new 0 0 502 502;" xml:space="preserve">
<g>
	<g>
		<g>
			<path style="fill:#C7EBFF;" d="M441.859,10H60.141C32.563,10,10,32.563,10,60.141V441.86C10,469.437,32.563,492,60.141,492
				H441.86c27.577,0,50.14-22.563,50.14-50.141V60.141C492,32.563,469.437,10,441.859,10z M382.548,244.411L269.79,309.522
				c-15.271,8.818-34.362-2.203-34.362-19.837v-40.137c-0.331,0.013-0.662,0.025-0.997,0.025H161.56v113.643
				c0,13.807-11.193,25-25,25s-25-11.193-25-25V224.573c0-13.807,11.193-25,25-25h97.871c0.334,0,0.665,0.012,0.997,0.025v-40.136
				c0-17.634,19.09-28.655,34.362-19.837l112.758,65.111C397.817,213.554,397.817,235.594,382.548,244.411z"/>
			<path style="fill:#50A5DC;" d="M382.548,204.736L269.79,139.625c-15.271-8.818-34.362,2.203-34.362,19.837v40.136
				c-0.331-0.013-0.662-0.025-0.997-0.025H136.56c-13.807,0-25,11.193-25,25v138.643c0,13.807,11.193,25,25,25s25-11.193,25-25
				V249.573h72.871c0.334,0,0.665-0.012,0.997-0.025v40.137c0,17.634,19.09,28.655,34.362,19.837l112.758-65.111
				C397.817,235.594,397.817,213.554,382.548,204.736z"/>
		</g>
		<path d="M136.56,398.216c-19.299,0-35-15.701-35-35V224.573c0-19.299,15.701-35,35-35h88.868v-30.111
			c0-11.896,6.151-22.551,16.455-28.499c10.303-5.948,22.605-5.946,32.907,0.002l112.759,65.111l0,0
			C397.851,202.025,404,212.679,404,224.574s-6.15,22.548-16.452,28.496L274.79,318.182c-10.302,5.949-22.603,5.949-32.908,0.002
			c-10.303-5.948-16.455-16.602-16.455-28.499v-30.111H171.56v103.643C171.56,382.515,155.859,398.216,136.56,398.216z
			 M136.56,209.573c-8.271,0-15,6.729-15,15v138.643c0,8.271,6.729,15,15,15s15-6.729,15-15V249.573c0-5.522,4.477-10,10-10h72.871
			c0.206,0,0.41-0.01,0.613-0.018c2.711-0.13,5.358,0.901,7.317,2.787c1.959,1.885,3.066,4.486,3.066,7.205v40.137
			c0,6.726,4.513,10.058,6.454,11.178c1.939,1.121,7.083,3.364,12.906-0.001l112.759-65.111c5.824-3.362,6.453-8.936,6.453-11.176
			c0-2.241-0.629-7.814-6.453-11.178l-112.759-65.111c-5.819-3.362-10.966-1.122-12.906-0.001c-1.94,1.12-6.454,4.452-6.454,11.178
			v40.137c0,2.719-1.107,5.32-3.066,7.205c-1.959,1.886-4.596,2.911-7.317,2.787c-0.204-0.008-0.407-0.018-0.613-0.018H136.56z"/>
	</g>
	<path d="M441.859,502H60.141C26.979,502,0,475.021,0,441.859V60.141C0,26.979,26.979,0,60.141,0H441.86
		C475.021,0,502,26.979,502,60.141V441.86C502,475.021,475.021,502,441.859,502z M60.141,20C38.007,20,20,38.007,20,60.141V441.86
		C20,463.993,38.007,482,60.141,482H441.86c22.133,0,40.14-18.007,40.14-40.141V60.141C482,38.007,463.993,20,441.859,20H60.141z"/>
	<g>
		<path d="M300.784,65.258H68.835c-5.523,0-10-4.478-10-10s4.477-10,10-10h231.949c5.522,0,10,4.478,10,10
			S306.307,65.258,300.784,65.258z"/>
	</g>
	<g>
		<path d="M399.221,65.258h-44.127c-5.522,0-10-4.478-10-10s4.478-10,10-10h44.127c5.522,0,10,4.478,10,10
			S404.743,65.258,399.221,65.258z"/>
	</g>
</g>
<g>
</g>
<g>
</g>
<g>
</g>
<g>
</g>
<g>
</g>
<g>
</g>
<g>
</g>
<g>
</g>
<g>
</g>
<g>
</g>
<g>
</g>
<g>
</g>
<g>
</g>
<g>
</g>
<g>
</g>
</svg>
