<?xml version="1.0" encoding="iso-8859-1"?>
<!-- Generator: Adobe Illustrator 19.0.0, SVG Export Plug-In . SVG Version: 6.00 Build 0)  -->
<svg version="1.1" id="Layer_1" xmlns="http://www.w3.org/2000/svg" xmlns:xlink="http://www.w3.org/1999/xlink" x="0px" y="0px"
	 viewBox="0 0 501.999 501.999" style="enable-background:new 0 0 501.999 501.999;" xml:space="preserve">
<g>
	<g>
		<path style="fill:#C7EBFF;" d="M464.427,301.038c0,0-98.755,85.78-220.576,85.78S23.275,245.893,23.275,245.893
			s98.755-91.907,220.576-91.907S464.427,301.038,464.427,301.038z"/>
		<path d="M243.851,396.816c-29.354,0-59.748-7.765-90.335-23.077c-24.12-12.075-48.43-28.86-72.253-49.887
			c-40.343-35.607-65.142-70.742-66.178-72.22c-2.864-4.087-2.276-9.66,1.377-13.06c1.042-0.97,25.989-24.021,66.429-47.3
			c37.477-21.572,95.822-47.287,160.96-47.287c29.416,0,59.86,8.113,90.488,24.113c24.126,12.604,48.437,30.117,72.257,52.057
			c40.322,37.136,65.098,73.765,66.133,75.306c2.813,4.188,2.064,9.816-1.744,13.125c-1.042,0.905-25.996,22.426-66.43,44.149
			C367.124,372.846,308.86,396.816,243.851,396.816z M36.855,247.363c9.237,11.952,29.848,37.016,57.974,61.786
			c35.051,30.869,89.357,67.667,149.022,67.667c60.657,0,115.475-22.542,150.779-41.452c26.477-14.183,46.271-28.513,56.172-36.184
			c-9.208-12.443-29.861-38.677-58.071-64.604c-35.037-32.203-89.309-70.59-148.88-70.59c-60.532,0-115.271,24.125-150.533,44.362
			C66.577,223.695,46.653,239.207,36.855,247.363z"/>
	</g>
	<g>
		<path d="M492.008,279.974c-3.16,0-6.269-1.493-8.212-4.282c-0.08-0.114-8.37-11.942-22.853-28.707
			c-3.61-4.18-3.149-10.494,1.03-14.104s10.495-3.147,14.104,1.03c15.221,17.62,23.768,29.833,24.124,30.344
			c3.159,4.531,2.046,10.764-2.484,13.922C495.976,279.391,493.982,279.974,492.008,279.974z"/>
	</g>
	<g>
		<path d="M10.004,221.923c-2.745,0-5.478-1.122-7.452-3.327c-3.684-4.113-3.339-10.431,0.771-14.115
			c0.31-0.277,7.728-6.903,20.966-16.672c19.258-14.209,50.382-34.724,89.29-51.765c46.758-20.478,92.993-30.861,137.42-30.861
			c79.641,0,149.947,52.519,194.902,96.576c3.944,3.865,4.009,10.196,0.143,14.141c-3.864,3.945-10.196,4.011-14.141,0.143
			c-42.296-41.449-108.014-90.859-180.904-90.859c-94.095,0-174.99,49.32-214.835,78.72c-12.396,9.146-19.424,15.411-19.494,15.473
			C14.762,221.081,12.378,221.923,10.004,221.923z"/>
	</g>
	<g>
		<circle style="fill:#50A5DC;" cx="243.851" cy="270.403" r="83.737"/>
		<path d="M243.851,364.14c-51.687,0-93.737-42.051-93.737-93.737s42.051-93.737,93.737-93.737s93.737,42.051,93.737,93.737
			S295.537,364.14,243.851,364.14z M243.851,196.664c-40.659,0-73.737,33.078-73.737,73.737s33.078,73.737,73.737,73.737
			s73.737-33.078,73.737-73.737S284.51,196.664,243.851,196.664z"/>
	</g>
	<g>
		<path d="M196.876,280.402c-5.522,0-10-4.478-10-10c0-31.416,25.559-56.975,56.975-56.975c5.522,0,10,4.478,10,10s-4.478,10-10,10
			c-20.388,0-36.975,16.587-36.975,36.975C206.876,275.924,202.399,280.402,196.876,280.402z"/>
	</g>
</g>
<g>
</g>
<g>
</g>
<g>
</g>
<g>
</g>
<g>
</g>
<g>
</g>
<g>
</g>
<g>
</g>
<g>
</g>
<g>
</g>
<g>
</g>
<g>
</g>
<g>
</g>
<g>
</g>
<g>
</g>
</svg>
